<svg width="28" height="28" viewBox="0 0 28 28" fill="none" xmlns="http://www.w3.org/2000/svg">
<path fill-rule="evenodd" clip-rule="evenodd" d="M21.6751 20.6857C22.3306 19.6857 22.5751 19.1746 23.0751 18.0523C19.3862 16.6523 18.7973 11.3968 22.4417 9.38566C21.3306 7.98566 19.764 7.17456 18.2862 7.17456C17.2195 7.17456 16.4862 7.45235 15.8306 7.70791C15.2751 7.91902 14.7751 8.10789 14.1528 8.10789C13.4862 8.10789 12.8973 7.8968 12.2751 7.67457C11.5973 7.43013 10.8862 7.17456 9.99727 7.17456C8.34172 7.17456 6.57506 8.18567 5.45283 9.91901C3.87505 12.3634 4.15284 16.9412 6.69728 20.8523C7.60839 22.2523 8.83061 23.819 10.4195 23.8412C11.0862 23.8523 11.5195 23.6523 11.9973 23.4412C12.5417 23.1968 13.1306 22.9301 14.1639 22.9301C15.1973 22.919 15.7751 23.1968 16.3195 23.4412C16.7862 23.6523 17.2084 23.8523 17.8639 23.8412C19.4751 23.819 20.7639 22.0857 21.6751 20.6857Z" fill="white"/>
<path fill-rule="evenodd" clip-rule="evenodd" d="M18.0528 1.61902C18.2306 2.84124 17.7306 4.05237 17.075 4.89681C16.375 5.80792 15.1528 6.51901 13.975 6.47457C13.7639 5.29679 14.3084 4.08567 14.975 3.27456C15.7195 2.38567 16.975 1.6968 18.0528 1.61902Z" fill="white"/>
</svg>
