<svg width="24" height="24" viewBox="0 0 24 24" fill="none" xmlns="http://www.w3.org/2000/svg">
<path d="M8.49851 11.4998L6.49768 9.49896L8.49851 7.49812" stroke="url(#paint0_linear_8_115)" stroke-width="1.5" stroke-linecap="round" stroke-linejoin="round"/>
<path d="M11.4998 7.49812L13.5006 9.49896L11.4998 11.4998" stroke="url(#paint1_linear_8_115)" stroke-width="1.5" stroke-linecap="round" stroke-linejoin="round"/>
<path d="M17.0021 7.99832H19.0029C20.1079 7.99832 21.0037 8.89413 21.0037 9.99915V19.0029C21.0037 20.1079 20.1079 21.0037 19.0029 21.0037H7.99833C6.8933 21.0037 5.9975 20.1079 5.9975 19.0029V16.0017" stroke="url(#paint2_linear_8_115)" stroke-width="1.5" stroke-linecap="round" stroke-linejoin="round"/>
<path fill-rule="evenodd" clip-rule="evenodd" d="M15.0012 16.0017H4.99705C3.89202 16.0017 2.99622 15.1059 2.99622 14.0008V4.99708C2.99622 3.89205 3.89202 2.99625 4.99705 2.99625H15.0012C16.1062 2.99625 17.002 3.89205 17.002 4.99708V14.0008C17.002 15.1059 16.1062 16.0017 15.0012 16.0017Z" stroke="url(#paint3_linear_8_115)" stroke-width="1.5" stroke-linecap="round" stroke-linejoin="round"/>
<defs>
<linearGradient id="paint0_linear_8_115" x1="6.49768" y1="7.49812" x2="8.64276" y2="7.577" gradientUnits="userSpaceOnUse">
<stop stop-color="#7E17E6"/>
<stop offset="1" stop-color="#2929FF"/>
</linearGradient>
<linearGradient id="paint1_linear_8_115" x1="11.4998" y1="7.49812" x2="13.6448" y2="7.577" gradientUnits="userSpaceOnUse">
<stop stop-color="#7E17E6"/>
<stop offset="1" stop-color="#2929FF"/>
</linearGradient>
<linearGradient id="paint2_linear_8_115" x1="5.9975" y1="7.99832" x2="21.9922" y2="9.35557" gradientUnits="userSpaceOnUse">
<stop stop-color="#7E17E6"/>
<stop offset="1" stop-color="#2929FF"/>
</linearGradient>
<linearGradient id="paint3_linear_8_115" x1="2.99622" y1="2.99625" x2="17.9383" y2="4.17965" gradientUnits="userSpaceOnUse">
<stop stop-color="#7E17E6"/>
<stop offset="1" stop-color="#2929FF"/>
</linearGradient>
</defs>
</svg>
