<svg width="26" height="26" viewBox="0 0 26 26" fill="none" xmlns="http://www.w3.org/2000/svg">
<path d="M3.62358 23.401L1.53723 0H24.4627L22.3741 23.3973L12.986 26L3.62358 23.401Z" fill="#264DE4"/>
<path d="M20.5861 21.9074L22.371 1.91333H13V24.0106L20.5861 21.9074Z" fill="#2965F1"/>
<path d="M6.32025 10.5925L6.57745 13.4625H13V10.5925H6.32025ZM6.06426 7.6535H13V4.78345H5.80334L6.06426 7.6535ZM13 18.0462L12.9874 18.0496L9.79104 17.1865L9.58675 14.8975H6.70563L7.10776 19.4039L12.9868 21.036L13 21.0323V18.0462Z" fill="#EBEBEB"/>
<path d="M12.9901 10.5925V13.4625H16.5242L16.1911 17.1847L12.9901 18.0486V21.0346L18.8738 19.4039L18.917 18.919L19.5914 11.3631L19.6614 10.5925L20.1796 4.78345H12.9901V7.6535H17.0343L16.7731 10.5925H12.9901Z" fill="white"/>
</svg>
