<svg width="20" height="20" viewBox="0 0 20 20" fill="none" xmlns="http://www.w3.org/2000/svg">
<g clip-path="url(#clip0_14_554)">
<path fill-rule="evenodd" clip-rule="evenodd" d="M10 0C7.28375 0 6.94375 0.0125 5.8775 0.06C4.8125 0.11 4.0875 0.2775 3.45 0.525C2.7925 0.78 2.23375 1.1225 1.67875 1.67875C1.1225 2.23375 0.77875 2.79125 0.525 3.45C0.2775 4.0875 0.10875 4.8125 0.06 5.8775C0.01 6.94375 0 7.28375 0 10C0 12.7163 0.0125 13.0563 0.06 14.1225C0.11 15.1875 0.2775 15.9137 0.525 16.55C0.78 17.2075 1.1225 17.7662 1.67875 18.3212C2.23375 18.8775 2.79125 19.2213 3.45 19.475C4.0875 19.7225 4.8125 19.8912 5.8775 19.94C6.94375 19.99 7.28375 20 10 20C12.7163 20 13.0563 19.9875 14.1225 19.94C15.1875 19.89 15.9137 19.7225 16.55 19.475C17.2075 19.22 17.7662 18.8775 18.3212 18.3212C18.8775 17.7662 19.2213 17.2087 19.475 16.55C19.7225 15.9125 19.8912 15.1875 19.94 14.1225C19.99 13.0563 20 12.7163 20 10C20 7.28375 19.9875 6.94375 19.94 5.8775C19.89 4.8125 19.7225 4.08625 19.475 3.45C19.22 2.7925 18.8775 2.23375 18.3212 1.67875C17.7662 1.1225 17.2087 0.77875 16.55 0.525C15.9125 0.2775 15.1875 0.10875 14.1225 0.06C13.0563 0.01 12.7163 0 10 0ZM10 1.8C12.67 1.8 12.9875 1.8125 14.0413 1.86C15.0162 1.905 15.545 2.0675 15.8975 2.205C16.365 2.38625 16.6975 2.6025 17.0475 2.9525C17.3975 3.3025 17.6138 3.635 17.795 4.1025C17.9325 4.455 18.095 4.98375 18.14 5.95875C18.1875 7.01375 18.1987 7.33 18.1987 10C18.1987 12.67 18.1862 12.9875 18.1388 14.0413C18.0938 15.0162 17.9312 15.545 17.7937 15.8975C17.6125 16.365 17.3962 16.6975 17.0462 17.0475C16.6963 17.3975 16.3638 17.6138 15.8962 17.795C15.5437 17.9325 15.015 18.095 14.04 18.14C12.985 18.1875 12.6687 18.1987 9.99875 18.1987C7.32875 18.1987 7.01125 18.1862 5.9575 18.1388C4.9825 18.0938 4.45375 17.9312 4.10125 17.7937C3.63375 17.6125 3.30125 17.3962 2.95125 17.0462C2.60125 16.6963 2.385 16.3638 2.20375 15.8962C2.06625 15.5437 1.90375 15.015 1.85875 14.04C1.8125 12.9875 1.8 12.67 1.8 10C1.8 7.33 1.8125 7.0125 1.86 5.95875C1.905 4.98375 2.0675 4.455 2.205 4.1025C2.38625 3.635 2.6025 3.3025 2.9525 2.9525C3.3025 2.6025 3.635 2.38625 4.1025 2.205C4.455 2.0675 4.98375 1.905 5.95875 1.86C7.0125 1.8125 7.33 1.8 10 1.8ZM10 4.865C7.1625 4.865 4.865 7.165 4.865 10C4.865 12.8375 7.165 15.135 10 15.135C12.8375 15.135 15.135 12.835 15.135 10C15.135 7.1625 12.835 4.865 10 4.865ZM10 13.3337C8.15875 13.3337 6.66625 11.8413 6.66625 10C6.66625 8.15875 8.15875 6.66625 10 6.66625C11.8413 6.66625 13.3337 8.15875 13.3337 10C13.3337 11.8413 11.8413 13.3337 10 13.3337ZM16.5375 4.6625C16.5375 5.325 16 5.8625 15.3375 5.8625C14.675 5.8625 14.1375 5.325 14.1375 4.6625C14.1375 4 14.675 3.4625 15.3375 3.4625C16 3.4625 16.5375 4 16.5375 4.6625Z" fill="white"/>
</g>
<defs>
<clipPath id="clip0_14_554">
<rect width="20" height="20" fill="white"/>
</clipPath>
</defs>
</svg>
