<svg width="48" height="44" viewBox="0 0 48 44" fill="none" xmlns="http://www.w3.org/2000/svg">
<path d="M42 4.34506L40.9691 11.5875C38.8614 11.4018 37.189 11.7732 35.9519 12.7017C34.7148 13.5838 33.8671 14.8605 33.4089 16.5318C32.9966 18.1567 32.9278 20.0137 33.2027 22.1029H42V40H25.0241V21.4065C25.0241 15.3247 26.4444 10.7286 29.2852 7.61808C32.126 4.46113 36.3643 3.37012 42 4.34506ZM18.9759 4.34506L17.945 11.5875C15.8373 11.4018 14.1649 11.7732 12.9278 12.7017C11.6907 13.5838 10.8431 14.8605 10.3849 16.5318C9.97251 18.1567 9.90378 20.0137 10.1787 22.1029H18.9759V40H2V21.4065C2 15.3247 3.42039 10.7286 6.26117 7.61808C9.10195 4.46113 13.3402 3.37012 18.9759 4.34506Z" fill="black" fill-opacity="0.4"/>
</svg>
