<svg width="132" height="35" viewBox="0 0 132 35" fill="none" xmlns="http://www.w3.org/2000/svg">
<g clip-path="url(#clip0_13_147)">
<path d="M24.5962 34.0347C33.7946 34.0347 41.2514 26.5942 41.2514 17.4158C41.2514 8.23751 33.7946 0.796997 24.5962 0.796997C15.3978 0.796997 7.94104 8.23751 7.94104 17.4158C7.94104 26.5942 15.3978 34.0347 24.5962 34.0347Z" fill="#6BD5E1"/>
<path d="M24.5962 0.797C23.4106 0.796333 22.2282 0.921346 21.069 1.16993C28.5734 2.7852 34.1969 9.44533 34.1969 17.4158C34.1969 25.3864 28.5734 32.0465 21.069 33.6618C22.2282 33.9104 23.4106 34.0354 24.5962 34.0347C33.7946 34.0347 41.2514 26.5942 41.2514 17.4158C41.2514 8.23749 33.7946 0.797 24.5962 0.797Z" fill="#FFD9A0"/>
<path d="M17.6351 0.797C18.8208 0.796333 20.0032 0.921346 21.1624 1.16993C13.658 2.7852 8.03448 9.44533 8.03448 17.4158C8.03448 25.3864 13.658 32.0465 21.1624 33.6618C20.0032 33.9104 18.8208 34.0354 17.6351 34.0347C8.43673 34.0347 0.97998 26.5942 0.97998 17.4158C0.97998 8.23749 8.43673 0.797 17.6351 0.797Z" fill="white"/>
<path d="M17.6351 2.1955C21.1542 2.19783 24.5642 3.41384 27.2877 5.63756C30.0111 7.86128 31.8805 10.956 32.5791 14.3974C33.2778 17.8389 32.7628 21.4156 31.1213 24.5215C29.4798 27.6275 26.8129 30.0718 23.5721 31.4405C19.8471 32.9973 15.6554 33.0169 11.9158 31.4951C8.17624 29.9733 5.19387 27.0342 3.62239 23.322C2.05091 19.6098 2.01852 15.4273 3.53232 11.6913C5.04611 7.95526 7.9826 4.97051 11.6982 3.39122C13.5764 2.59808 15.5957 2.19139 17.6351 2.1955ZM17.6351 0.796997C8.43673 0.796997 0.97998 8.23749 0.97998 17.4158C0.97998 26.5942 8.43673 34.0347 17.6351 34.0347C26.8336 34.0347 34.2903 26.5942 34.2903 17.4158C34.2903 8.23749 26.8336 0.796997 17.6351 0.796997Z" fill="#626262"/>
</g>
<g clip-path="url(#clip1_13_147)">
<path d="M49.6642 9.73474H55.8189C60.3323 9.73474 62.9536 13.1489 62.9536 17.61C62.9536 22.0484 60.3323 25.417 55.8189 25.417H49.6642V9.73474ZM55.8189 22.6174C58.4403 22.6174 59.7852 20.2958 59.7852 17.61C59.7852 14.9242 58.4403 12.5343 55.8189 12.5343H52.8328V22.6174H55.8189Z" fill="white"/>
<path d="M73.1661 14.8786L72.4822 17.7238C72.015 17.4655 71.4889 17.3322 70.9549 17.3368C69.4277 17.3368 68.3791 18.748 68.3791 21.7752V25.4169H65.393V14.8104H68.3563V17.0637C68.949 15.2883 70.1571 14.5372 71.4792 14.5372C72.0491 14.5372 72.6874 14.6283 73.1661 14.8786Z" fill="white"/>
<path d="M85.498 14.8104V25.417H82.5119V24.0969C81.7597 25.1439 80.2781 25.6218 79.0927 25.6218C76.3573 25.6218 73.8727 23.5051 73.8727 20.0909C73.8727 16.6768 76.3573 14.5601 79.0927 14.5601C80.3236 14.5601 81.7597 15.0152 82.5119 16.085V14.8104L85.498 14.8104ZM82.4207 20.0909C82.4207 18.4522 81.0531 17.3596 79.6626 17.3596C78.1581 17.3596 76.9044 18.5204 76.9044 20.0909C76.9044 20.8213 77.195 21.5218 77.7122 22.0383C78.2295 22.5548 78.931 22.845 79.6626 22.845C80.3941 22.845 81.0956 22.5548 81.6129 22.0383C82.1301 21.5218 82.4207 20.8213 82.4207 20.0909Z" fill="white"/>
<path d="M104.167 14.8104L100.406 25.417H97.8532L95.6648 18.5204L93.5449 25.417H90.9919L87.1168 14.8104H90.3536L92.3596 21.2745L94.3884 14.8104H96.8958L98.9245 21.2745L100.93 14.8104H104.167Z" fill="white"/>
<path d="M114.311 25.417L109.41 19.9088V25.417H106.242V9.73474H109.41V15.0835L113.308 9.73474H117.252L111.302 17.5417L118.62 25.417H114.311Z" fill="white"/>
<path d="M119.326 11.1231C119.326 10.1217 120.192 9.34778 121.218 9.34778C122.267 9.34778 123.11 10.1217 123.11 11.1231C123.11 12.1246 122.267 12.9213 121.218 12.9213C120.192 12.9213 119.326 12.1246 119.326 11.1231ZM119.737 14.8104H122.723V25.417H119.737V14.8104Z" fill="white"/>
<path d="M132 17.1093H129.743V25.417H126.757V17.1093H124.82V14.8104H126.757V10.9183H129.743V14.8104H132V17.1093Z" fill="white"/>
</g>
<defs>
<clipPath id="clip0_13_147">
<rect width="40.2714" height="33.2377" fill="white" transform="translate(0.97998 0.796997)"/>
</clipPath>
<clipPath id="clip1_13_147">
<rect width="82.3357" height="16.2741" fill="white" transform="translate(49.6642 9.34778)"/>
</clipPath>
</defs>
</svg>
