<svg width="170" height="37" viewBox="0 0 170 37" fill="none" xmlns="http://www.w3.org/2000/svg">
<path d="M55.7559 24.6518H58.533L54.6714 13.1476H51.2534L47.3917 24.6518H50.1524L50.8754 22.3509H55.0329L55.7559 24.6518ZM51.5492 20.1158L52.8474 15.9579H53.061L54.3592 20.1158H51.5492Z" fill="#3377FF"/>
<path d="M64.684 16.2702C63.3036 16.2702 62.6135 16.8454 62.0712 17.5685H61.874L61.5289 16.4345H59.4584V24.6518H62.0876V21.3813C62.0876 19.3927 63.1393 18.6367 64.3553 18.6367C64.7004 18.6367 65.1605 18.7354 65.3248 18.7847V16.2702H64.684Z" fill="#3377FF"/>
<path d="M72.2034 24.3395L71.7269 22.3838C71.5626 22.466 71.2668 22.6303 70.9217 22.6303C70.478 22.6303 70.1987 22.3345 70.1987 21.71V18.4395H72.2856V16.4345H70.1987V14.3638H67.8981V15.4485C67.8981 16.1058 67.4544 16.5824 66.5999 16.5824H66.0576V18.4395H67.6845V21.9565C67.6845 24.1587 68.8348 24.8161 70.4287 24.8161C71.2175 24.8161 71.8255 24.5696 72.2034 24.3395Z" fill="#3377FF"/>
<path d="M77.9058 16.2537C76.9527 16.2537 76.2461 16.6153 75.8682 17.059V12.9504H73.4197V24.6518H75.3588L75.6052 23.83H75.8517C76.2626 24.3395 76.9034 24.7997 78.0208 24.7997C80.0585 24.7997 81.8003 23.2055 81.8003 20.5596C81.8003 17.8643 79.9928 16.2537 77.9058 16.2537ZM77.5936 22.5646C76.5748 22.5646 75.8682 21.71 75.8682 20.5267C75.8682 19.3434 76.5748 18.5053 77.5936 18.5053C78.6124 18.5053 79.3355 19.3434 79.3355 20.5267C79.3355 21.71 78.6124 22.5646 77.5936 22.5646Z" fill="#3377FF"/>
<path d="M87.0757 24.8161C89.4913 24.8161 91.4797 23.1234 91.4797 20.5267C91.4797 17.9465 89.4913 16.2702 87.0757 16.2702C84.6766 16.2702 82.6389 17.9465 82.6389 20.5431C82.6389 23.1234 84.6766 24.8161 87.0757 24.8161ZM87.0757 22.5975C85.9419 22.5975 85.1367 21.7264 85.1367 20.5431C85.1367 19.3763 85.9419 18.4888 87.0757 18.4888C88.2096 18.4888 88.9819 19.3763 88.9819 20.5431C88.9819 21.7264 88.226 22.5975 87.0757 22.5975Z" fill="#3377FF"/>
<path d="M99.7783 21.9565V19.7214C99.7783 17.3549 98.1679 16.2702 96.196 16.2702C94.0597 16.2702 92.7287 17.5192 92.5972 19.2777H94.9635C94.9964 18.834 95.3415 18.1437 96.2124 18.1437C96.8697 18.1437 97.3791 18.5546 97.3791 19.3763V19.5078L95.8673 19.6228C93.6653 19.8036 92.2193 20.6253 92.2193 22.3838C92.2193 23.9451 93.386 24.8161 95.1936 24.8161C96.4918 24.8161 97.4613 24.3395 98.0857 23.6C98.3815 24.4217 99.1867 24.6518 99.9755 24.6518H100.436V22.6139C99.959 22.6139 99.7783 22.4495 99.7783 21.9565ZM95.588 22.8604C95.0621 22.8604 94.7335 22.6139 94.7335 22.2195C94.7335 21.7429 95.2757 21.3649 96.5246 21.2663L97.3791 21.2005C97.3298 22.203 96.4589 22.8604 95.588 22.8604Z" fill="#3377FF"/>
<path d="M106.744 16.2702C105.364 16.2702 104.674 16.8454 104.132 17.5685H103.934L103.589 16.4345H101.519V24.6518H104.148V21.3813C104.148 19.3927 105.2 18.6367 106.416 18.6367C106.761 18.6367 107.221 18.7354 107.385 18.7847V16.2702H106.744Z" fill="#3377FF"/>
<path d="M111.792 16.2537C109.705 16.2537 107.898 17.8643 107.898 20.5596C107.898 23.2055 109.64 24.7997 111.661 24.7997C112.778 24.7997 113.419 24.3395 113.846 23.83H114.076L114.323 24.6518H116.262V12.9504H113.813V17.059C113.435 16.6153 112.745 16.2537 111.792 16.2537ZM112.088 22.5646C111.086 22.5646 110.363 21.71 110.363 20.5267C110.363 19.3434 111.069 18.5053 112.088 18.5053C113.123 18.5053 113.813 19.3434 113.813 20.5267C113.813 21.71 113.123 22.5646 112.088 22.5646Z" fill="#3377FF"/>
<path d="M130.452 21.5292C130.452 19.442 128.825 18.5053 126.738 17.6014C125.505 17.0919 124.963 16.7961 124.963 16.188C124.963 15.5635 125.473 15.1855 126.196 15.1855C127.182 15.1855 127.691 15.7771 127.757 16.5496H130.139C130.139 14.6103 128.693 12.9833 126.179 12.9833C124.043 12.9833 122.35 14.1994 122.35 16.3852C122.35 18.2916 124.174 19.1298 125.703 19.7707C126.984 20.2638 127.79 20.7075 127.79 21.4963C127.79 22.2359 127.149 22.5975 126.409 22.5975C125.177 22.5975 124.569 21.8743 124.569 20.7732H122.022C122.022 23.1234 123.599 24.8161 126.327 24.8161C128.71 24.8161 130.452 23.715 130.452 21.5292Z" fill="#3377FF"/>
<path d="M136.955 24.3395L136.478 22.3838C136.314 22.466 136.018 22.6303 135.673 22.6303C135.23 22.6303 134.95 22.3345 134.95 21.71V18.4395H137.037V16.4345H134.95V14.3638H132.65V15.4485C132.65 16.1058 132.206 16.5824 131.352 16.5824H130.809V18.4395H132.436V21.9565C132.436 24.1587 133.586 24.8161 135.18 24.8161C135.969 24.8161 136.577 24.5696 136.955 24.3395Z" fill="#3377FF"/>
<path d="M141.41 24.8161C142.938 24.8161 143.513 24.1423 143.891 23.6657H144.088L144.4 24.6518H146.471V16.4345H143.858V20.5596C143.858 21.9565 143.135 22.5153 142.313 22.5153C141.393 22.5153 140.736 21.8743 140.736 20.5431V16.4345H138.123V20.9376C138.123 23.4849 139.487 24.8161 141.41 24.8161Z" fill="#3377FF"/>
<path d="M151.365 16.2537C149.278 16.2537 147.471 17.8643 147.471 20.5596C147.471 23.2055 149.213 24.7997 151.234 24.7997C152.351 24.7997 152.992 24.3395 153.419 23.83H153.649L153.896 24.6518H155.835V12.9504H153.386V17.059C153.009 16.6153 152.318 16.2537 151.365 16.2537ZM151.661 22.5646C150.659 22.5646 149.936 21.71 149.936 20.5267C149.936 19.3434 150.642 18.5053 151.661 18.5053C152.696 18.5053 153.386 19.3434 153.386 20.5267C153.386 21.71 152.696 22.5646 151.661 22.5646Z" fill="#3377FF"/>
<path d="M158.616 15.6128C159.454 15.6128 160.144 14.8897 160.144 14.0844C160.144 13.1969 159.454 12.5396 158.616 12.5396C157.778 12.5396 157.055 13.1969 157.055 14.0844C157.055 14.8897 157.778 15.6128 158.616 15.6128ZM159.832 16.4345H157.35V24.6518H159.832V16.4345Z" fill="#3377FF"/>
<path d="M165.596 24.8161C168.012 24.8161 170 23.1234 170 20.5267C170 17.9465 168.012 16.2702 165.596 16.2702C163.197 16.2702 161.159 17.9465 161.159 20.5431C161.159 23.1234 163.197 24.8161 165.596 24.8161ZM165.596 22.5975C164.462 22.5975 163.657 21.7264 163.657 20.5431C163.657 19.3763 164.462 18.4888 165.596 18.4888C166.73 18.4888 167.502 19.3763 167.502 20.5431C167.502 21.7264 166.746 22.5975 165.596 22.5975Z" fill="#3377FF"/>
<path fill-rule="evenodd" clip-rule="evenodd" d="M9.21678 0.490087C4.45002 0.902868 0.737446 4.71539 0.399584 9.48805C0.18341 12.5417 0 15.896 0 18.4867C0 21.0775 0.18341 24.4317 0.399584 27.4854C0.737446 32.2581 4.45002 36.0706 9.21678 36.4834C12.2827 36.7489 15.6999 36.9735 18.4867 36.9735C21.2735 36.9735 24.6907 36.7489 27.7566 36.4834C32.5234 36.0706 36.236 32.2581 36.5738 27.4854C36.79 24.4317 36.9734 21.0775 36.9734 18.4867C36.9734 15.896 36.79 12.5417 36.5738 9.48805C36.236 4.71539 32.5234 0.902868 27.7566 0.490088C24.6907 0.22459 21.2735 0 18.4867 0C15.6999 0 12.2827 0.22459 9.21678 0.490087ZM21.6218 9.24338H17.8259C17.7021 9.24338 17.5784 9.32555 17.5784 9.48987C17.5784 9.57204 17.6196 9.6542 17.7021 9.69528C19.9714 10.5991 21.5806 12.8175 21.5806 15.4056V21.5679C21.5806 23.8274 20.384 25.7993 18.5686 26.8674C18.548 26.8674 18.5377 26.8777 18.5273 26.8879C18.517 26.8982 18.5067 26.9085 18.4861 26.9085C18.3623 26.9906 18.2798 27.1139 18.2798 27.2782C18.2798 27.5247 18.4861 27.7301 18.7336 27.7301H21.5393C24.9639 27.7301 27.7283 24.9776 27.7283 21.5679V15.4056C27.8108 11.9959 25.0464 9.24338 21.6218 9.24338ZM15.5566 14.091C15.8455 12.8175 16.5056 11.7083 17.4133 10.8867C17.5371 10.8045 17.4959 10.5991 17.4133 10.5169C16.8357 10.065 16.1343 9.73638 15.4329 9.48989C14.8552 9.32556 14.2363 9.32556 13.6587 9.48989C11.5544 10.1472 9.98658 11.7905 9.4502 13.8856C9.4502 13.89 9.4479 13.9002 9.44457 13.9151C9.41632 14.0416 9.31352 14.5018 9.90406 14.5018H15.144C15.4741 14.5018 15.5566 14.1321 15.5566 14.091ZM15.5154 15.4056H19.2288C19.3526 15.4056 19.4763 15.4878 19.3938 15.6521C19.3938 15.7343 19.3526 15.8164 19.27 15.8575C17.0007 16.7613 15.3916 18.9797 15.3916 21.5679C15.3916 23.3755 16.1756 25.0187 17.4133 26.1279C17.5371 26.2101 17.5371 26.3744 17.4133 26.4566C16.5881 27.1139 15.5979 27.5247 14.5252 27.689C11.5132 27.2371 9.20265 24.649 9.24391 21.5268C9.28517 18.117 12.0908 15.4056 15.5154 15.4056Z" fill="#3377FF"/>
</svg>
