<svg width="25" height="24" viewBox="0 0 25 24" fill="none" xmlns="http://www.w3.org/2000/svg">
<path fill-rule="evenodd" clip-rule="evenodd" d="M10.5639 0.551812C9.53067 1.28531 8.20632 3.21412 7.75638 4.64062C7.62419 5.05969 7.63644 5.0625 9.64488 5.0625H9.66632C10.7709 5.0625 11.6663 4.16707 11.6663 3.0625V2.53125C11.6663 1.13906 11.5932 0 11.5037 0C11.4144 0 10.9914 0.24825 10.5639 0.551812ZM13.388 2.53125V3.0625C13.388 4.16707 14.2921 5.0625 15.3966 5.0625C16.5014 5.0625 17.4053 5.02725 17.4053 4.98431C17.4053 4.70419 16.5268 2.99006 15.9369 2.11875C15.3029 1.18294 13.9709 0 13.5506 0C13.4611 0 13.388 1.13906 13.388 2.53125ZM6.41385 1.36444C5.23603 1.98919 3.3416 3.58294 2.65752 4.52456C2.49481 4.74852 2.6548 5.0625 2.93162 5.0625H3.97576H4.53448C5.22607 5.0625 5.84479 4.63256 6.08597 3.98438C6.30672 3.39131 6.78554 2.42119 7.14997 1.82812C7.5142 1.23525 7.75409 0.75225 7.68292 0.755063C7.61176 0.757688 7.04073 1.032 6.41385 1.36444ZM17.786 1.62112C18.096 2.10019 18.5751 3.0705 18.8507 3.77738C19.1501 4.5453 19.8944 5.0625 20.7186 5.0625H20.9609C22.0508 5.0625 22.5703 4.99256 22.5703 4.84575C22.5703 4.43213 19.7634 1.95994 18.6087 1.35675C17.97 1.023 17.3967 0.75 17.3349 0.75C17.2731 0.75 17.476 1.14206 17.786 1.62112ZM0.871178 7.52212C0.556492 8.29313 0.00536202 10.3847 5.66648e-06 10.8281C-0.00209861 11.0027 0.581552 11.0625 2.28908 11.0625C4.91599 11.0625 4.66366 11.2725 4.88002 8.90625C4.94583 8.18437 5.04569 7.40381 5.10174 7.17188C5.20255 6.75488 5.18074 6.75 3.19507 6.75H2.02044C1.51607 6.75 1.06183 7.05517 0.871178 7.52212ZM6.9998 7.07812C6.89707 7.41113 6.50127 10.3845 6.50127 10.8232C6.50127 11.0055 7.11706 11.0625 9.0838 11.0625H9.66633C10.7709 11.0625 11.6663 10.1671 11.6663 9.0625V8.90625V8.75C11.6663 7.64543 10.7709 6.75 9.66632 6.75H9.38356C7.3757 6.75 7.08875 6.78956 6.9998 7.07812ZM13.388 8.90625V9.0625C13.388 10.1671 14.2834 11.0625 15.388 11.0625H15.9885H17.5964C18.1227 11.0625 18.5292 10.6 18.4616 10.0781C18.3916 9.53662 18.2456 8.5665 18.1372 7.92188C18.0233 7.24538 17.4376 6.75 16.7516 6.75H15.6639H15.388C14.2834 6.75 13.388 7.64543 13.388 8.75V8.90625ZM19.9017 7.44694C19.9916 7.83712 20.1234 8.81006 20.1946 9.60938C20.2679 10.432 20.9571 11.0625 21.783 11.0625H22.6197H23.9654C24.468 11.0625 24.8553 10.6193 24.7878 10.1213C24.7176 9.60356 24.4693 8.65444 24.236 8.01188C23.98 7.30716 23.3188 6.83091 22.5693 6.81138L21.7749 6.79069L20.466 6.75658C20.0975 6.74698 19.819 7.08771 19.9017 7.44694ZM0.262275 13.992C0.331717 14.5721 0.580596 15.5213 0.815319 16.1014C1.07441 16.7421 1.68853 17.1683 2.37937 17.187L3.22816 17.2099L4.49288 17.2441C4.86462 17.2542 5.15124 16.9194 5.08395 16.5536C5.01221 16.1632 4.90202 15.1899 4.83928 14.3906C4.77469 13.5703 4.09015 12.9375 3.26726 12.9375H2.43026H1.19788C0.632978 12.9375 0.195018 13.4311 0.262275 13.992ZM6.50127 13.299C6.50127 13.7837 6.87813 16.5096 7.00228 16.9219C7.08875 17.2097 7.37015 17.25 9.28791 17.25H9.47503C10.5796 17.25 11.475 16.3546 11.475 15.25V15.0938V14.9375C11.475 13.8329 10.5796 12.9375 9.47503 12.9375H8.98815C6.65986 12.9375 6.50127 12.9606 6.50127 13.299ZM13.388 15.0938V15.25C13.388 16.3546 14.2834 17.25 15.388 17.25H15.6639H16.7516C17.4376 17.25 18.0233 16.7546 18.1372 16.0781C18.2456 15.4337 18.3916 14.4634 18.4616 13.9219C18.5292 13.4 18.1227 12.9375 17.5964 12.9375H15.9885H15.388C14.2834 12.9375 13.388 13.8329 13.388 14.9375V15.0938ZM20.2099 14.3415C20.1431 15.1136 20.0335 16.0839 19.966 16.4977C19.9016 16.892 20.2059 17.25 20.6054 17.25H21.8608H22.6153C23.3703 17.25 24.0415 16.7691 24.2842 16.0541C24.5076 15.3964 24.7599 14.4261 24.8452 13.8979C24.9264 13.3942 24.5374 12.9375 24.0272 12.9375H22.6654H21.74C20.9429 12.9375 20.2783 13.5473 20.2099 14.3415ZM2.86393 19.6843C3.68192 20.6966 5.22455 21.9549 6.51677 22.6641C7.10386 22.9864 7.63567 23.25 7.69842 23.25C7.76116 23.25 7.5142 22.7647 7.14997 22.1719C6.78554 21.579 6.30672 20.6085 6.08597 20.0156C5.84479 19.3674 5.22607 18.9375 4.53448 18.9375H3.9727H3.22066C2.83509 18.9375 2.62162 19.3844 2.86393 19.6843ZM7.75657 19.3594C8.0219 20.199 8.85654 21.6737 9.51919 22.4738C10.1338 23.2161 11.1601 23.9976 11.5229 23.9993C11.6017 23.9996 11.6663 22.8609 11.6663 21.4688V20.9375C11.6663 19.8329 10.7709 18.9375 9.66632 18.9375H9.64488C7.63644 18.9375 7.62419 18.9403 7.75657 19.3594ZM13.388 21.4688C13.388 22.8609 13.4611 24 13.5506 24C13.9315 24 15.3142 22.83 15.8711 22.0365C16.3857 21.3036 17.4053 19.3028 17.4053 19.0258C17.4053 18.9773 16.5014 18.9375 15.3966 18.9375C14.2921 18.9375 13.388 19.8329 13.388 20.9375V21.4688ZM18.9335 20.0681C18.6963 20.6899 18.2187 21.6602 17.872 22.2244C17.5254 22.7884 17.3062 23.25 17.3846 23.25C17.6486 23.25 19.8772 21.8499 20.7239 21.1521C21.1857 20.7714 21.8401 20.1176 22.1785 19.6989C22.4256 19.3932 22.208 18.9375 21.8148 18.9375H21.0793H20.5751C19.8464 18.9375 19.1933 19.3873 18.9335 20.0681Z" fill="white"/>
</svg>
