<svg width="26" height="26" viewBox="0 0 26 26" fill="none" xmlns="http://www.w3.org/2000/svg">
<g clip-path="url(#clip0_13_98)">
<path d="M0.285645 0.285889H25.7137V25.7141H0.285645V0.285889Z" fill="#F0DB4F"/>
<path d="M23.6335 19.6498C23.4472 18.4896 22.6907 17.5153 20.4501 16.6067C19.6717 16.249 18.804 15.9929 18.5454 15.403C18.4536 15.0597 18.4414 14.8663 18.4995 14.6585C18.6663 13.9841 19.4713 13.7739 20.1093 13.9672C20.5202 14.105 20.9092 14.4217 21.1437 14.9269C22.2411 14.2163 22.2389 14.221 23.005 13.7327C22.7245 13.2977 22.5748 13.0971 22.3912 12.911C21.7312 12.1739 20.832 11.7943 19.3938 11.8233L18.6447 11.9202C17.9269 12.1016 17.2428 12.4784 16.8416 12.9836C15.6379 14.3493 15.9811 16.7397 17.4459 17.7235C18.8889 18.8065 21.0088 19.053 21.2795 20.0658C21.543 21.3056 20.3683 21.707 19.2007 21.5643C18.3403 21.3854 17.8617 20.9481 17.3444 20.1529C16.3921 20.704 16.3921 20.704 15.413 21.267C15.6452 21.7746 15.8891 22.0044 16.2784 22.4441C18.1203 24.3124 22.7296 24.2207 23.5563 21.3927C23.5898 21.2957 23.8124 20.6481 23.6335 19.6498ZM14.11 11.973H11.7316L11.7219 18.122C11.7219 19.4297 11.7895 20.6286 11.5768 20.996C11.2289 21.7187 10.3272 21.6291 9.91626 21.489C9.49803 21.2834 9.28535 20.9911 9.03897 20.578C8.97133 20.4593 8.92054 20.3676 8.90348 20.3604L6.96973 21.5446C7.29128 22.2046 7.76497 22.7775 8.3717 23.1496C9.27804 23.6935 10.4962 23.8602 11.7702 23.5677C12.5994 23.3263 13.3147 22.826 13.6893 22.0645C14.2309 21.0661 14.1146 19.8578 14.1098 18.5211C14.122 16.3406 14.11 14.1605 14.11 11.973Z" fill="#323330"/>
</g>
<defs>
<clipPath id="clip0_13_98">
<rect width="26" height="26" fill="white"/>
</clipPath>
</defs>
</svg>
