<svg width="150" height="32" viewBox="0 0 150 32" fill="none" xmlns="http://www.w3.org/2000/svg">
<g clip-path="url(#clip0_13_116)">
<path d="M41.9175 15.555C41.963 14.2436 42.2769 13.2373 42.8593 12.536C43.4417 11.8348 44.2607 11.4842 45.3162 11.4842C46.4082 11.4842 47.2454 11.8621 47.8278 12.618C48.4192 13.383 48.715 14.4712 48.715 15.8828V22.467H50.8853V15.555C50.9398 14.2345 51.2583 13.2282 51.8407 12.536C52.4231 11.8348 53.2375 11.4842 54.284 11.4842C55.3851 11.4842 56.2268 11.8621 56.8092 12.618C57.3915 13.383 57.6827 14.4712 57.6827 15.8828V22.467H59.8666V15.8828C59.8666 14.4621 59.5982 13.2282 59.0613 12.1809C58.5335 11.1336 57.7828 10.3641 56.8092 9.87229C56.063 9.49891 55.2213 9.31222 54.284 9.31222C53.3558 9.31222 52.5187 9.49891 51.7725 9.87229C50.9717 10.3003 50.362 10.9833 49.9434 11.9213C49.4157 11.0015 48.715 10.3185 47.8414 9.87229C47.0861 9.49891 46.2444 9.31222 45.3162 9.31222C44.379 9.31222 43.5373 9.49891 42.7911 9.87229C42.4726 10.0453 42.1814 10.2639 41.9175 10.528V9.31222H39.7336V22.467H41.9175V15.555ZM64.0611 14.749H71.7458C71.7458 14.6306 71.7367 14.5259 71.7185 14.4348L71.6912 14.3392C71.2362 12.4359 69.9759 11.4842 67.9103 11.4842C66.7455 11.4842 65.831 11.7984 65.1667 12.4268C64.6662 12.9003 64.3205 13.5378 64.1294 14.3392C64.1021 14.4576 64.0793 14.5942 64.0611 14.749ZM74.0389 15.7599V16.7844H64.0202C64.0384 16.9574 64.0566 17.094 64.0748 17.1942C64.2477 18.0593 64.598 18.7514 65.1258 19.2705C65.8174 19.9444 66.791 20.2814 68.0468 20.2814C68.8749 20.2814 69.6119 20.1357 70.258 19.8443C70.895 19.5529 71.3818 19.143 71.7185 18.6148L73.684 19.5711C73.1653 20.4818 72.4101 21.1921 71.4182 21.7021C70.4263 22.212 69.3025 22.467 68.0468 22.467C66.1631 22.467 64.6526 21.8797 63.5151 20.7049C62.3868 19.5392 61.8089 17.9683 61.7816 15.9921V15.8828C61.7816 13.8884 62.3367 12.2902 63.4469 11.0881C64.557 9.89505 66.0448 9.29856 67.9103 9.29856C69.5391 9.29856 70.8859 9.7539 71.9505 10.6646C73.0152 11.5844 73.6749 12.8502 73.9297 14.4621C73.9934 14.8902 74.0298 15.3227 74.0389 15.7599ZM79.1479 12.618C78.4745 13.3739 78.1378 14.4621 78.1378 15.8828C78.1378 17.3035 78.4745 18.3917 79.1479 19.1476C79.8304 19.9035 80.8086 20.2814 82.0826 20.2814C83.3565 20.2814 84.3302 19.9035 85.0035 19.1476C85.686 18.3917 86.0273 17.308 86.0273 15.8965V15.8691C86.0273 14.4576 85.686 13.3739 85.0035 12.618C84.3302 11.8621 83.3565 11.4842 82.0826 11.4842C80.8086 11.4842 79.8304 11.8621 79.1479 12.618ZM82.0826 22.467C81.6094 22.467 81.1589 22.4261 80.7312 22.3441L80.5948 22.3168C79.1388 22.0162 78.0013 21.2968 77.1824 20.1585C76.3634 19.0201 75.9539 17.5949 75.9539 15.8828C75.9539 14.1616 76.3679 12.7318 77.196 11.5935C78.0241 10.4551 79.1706 9.74025 80.6357 9.44883L80.7722 9.40785C81.1908 9.33499 81.6276 9.29856 82.0826 9.29856C82.5375 9.29856 82.9789 9.33954 83.4066 9.42151L83.5294 9.44883C84.5577 9.66739 85.3903 10.1546 86.0273 10.9105V2.82361H88.2112V22.467H86.0273V20.8551C85.3994 21.6019 84.5804 22.0891 83.5703 22.3168L83.4202 22.3441C82.9925 22.4261 82.5466 22.467 82.0826 22.467ZM91.2727 22.467H93.443V9.29856H91.2727V22.467ZM93.2246 6.51187C93.4703 6.27509 93.5932 5.98368 93.5932 5.63762C93.5932 5.30066 93.4703 5.00925 93.2246 4.76336C92.988 4.52658 92.6968 4.4082 92.3511 4.4082C92.0144 4.4082 91.7277 4.52658 91.4911 4.76336C91.2454 5.00925 91.1226 5.30066 91.1226 5.63762C91.1226 5.98368 91.2454 6.27509 91.4911 6.51187C91.7277 6.75776 92.0144 6.8807 92.3511 6.8807C92.6968 6.8807 92.988 6.75776 93.2246 6.51187ZM98.7021 12.618C98.0288 13.3739 97.6921 14.4621 97.6921 15.8828C97.6921 17.3035 98.0288 18.3917 98.7021 19.1476C99.3846 19.9035 100.363 20.2814 101.637 20.2814C102.911 20.2814 103.884 19.9035 104.558 19.1476C105.24 18.3917 105.582 17.308 105.582 15.8965V15.8691C105.582 14.4576 105.24 13.3739 104.558 12.618C103.884 11.8621 102.911 11.4842 101.637 11.4842C100.363 11.4842 99.3846 11.8621 98.7021 12.618ZM101.637 22.467C101.164 22.467 100.713 22.4261 100.285 22.3441L100.149 22.3168C98.693 22.0162 97.5556 21.2968 96.7366 20.1585C95.9176 19.0201 95.5081 17.5949 95.5081 15.8828C95.5081 14.1616 95.9222 12.7318 96.7503 11.5935C97.5783 10.4551 98.7249 9.74025 100.19 9.44883L100.326 9.40785C100.745 9.33499 101.182 9.29856 101.637 9.29856C102.092 9.29856 102.533 9.33954 102.961 9.42151L103.084 9.44883C104.112 9.66739 104.945 10.1546 105.582 10.9105V9.31222H107.765V22.467H105.582V20.8551C104.954 21.6019 104.135 22.0891 103.125 22.3168L102.974 22.3441C102.547 22.4261 102.101 22.467 101.637 22.467ZM119.453 12.618C118.771 11.8621 117.793 11.4842 116.519 11.4842C115.245 11.4842 114.271 11.8621 113.598 12.618C112.915 13.3739 112.574 14.4576 112.574 15.8691V15.8965C112.574 17.308 112.915 18.3917 113.598 19.1476C114.271 19.9035 115.245 20.2814 116.519 20.2814C117.793 20.2814 118.771 19.9035 119.453 19.1476C120.127 18.3917 120.464 17.3035 120.464 15.8828C120.464 14.4621 120.127 13.3739 119.453 12.618ZM112.574 20.8551V22.467H110.39V2.82361H112.574V10.9105C113.202 10.1546 114.035 9.66284 115.072 9.43517L115.208 9.40785C115.627 9.33499 116.064 9.29856 116.519 9.29856C116.974 9.29856 117.415 9.33954 117.843 9.42151L117.966 9.44883C119.431 9.74025 120.577 10.4551 121.405 11.5935C122.233 12.7318 122.647 14.1616 122.647 15.8828C122.647 17.5949 122.238 19.0201 121.419 20.1585C120.6 21.2968 119.463 22.0162 118.007 22.3168C117.97 22.3259 117.925 22.335 117.87 22.3441C117.433 22.4261 116.983 22.467 116.519 22.467C116.055 22.467 115.609 22.4261 115.181 22.3441L115.045 22.3168C114.026 22.0891 113.202 21.6019 112.574 20.8551ZM127.756 12.618C127.083 13.3739 126.746 14.4621 126.746 15.8828C126.746 17.3035 127.083 18.3917 127.756 19.1476C128.439 19.9035 129.417 20.2814 130.691 20.2814C131.965 20.2814 132.939 19.9035 133.612 19.1476C134.295 18.3917 134.636 17.308 134.636 15.8965V15.8691C134.636 14.4576 134.295 13.3739 133.612 12.618C132.939 11.8621 131.965 11.4842 130.691 11.4842C129.417 11.4842 128.439 11.8621 127.756 12.618ZM130.691 22.467C130.218 22.467 129.767 22.4261 129.34 22.3441L129.203 22.3168C127.747 22.0162 126.61 21.2968 125.791 20.1585C124.972 19.0201 124.562 17.5949 124.562 15.8828C124.562 14.1616 124.977 12.7318 125.805 11.5935C126.633 10.4551 127.779 9.74025 129.244 9.44883L129.381 9.40785C129.799 9.33499 130.236 9.29856 130.691 9.29856C131.146 9.29856 131.587 9.33954 132.015 9.42151L132.138 9.44883C133.166 9.66739 133.999 10.1546 134.636 10.9105V9.31222H136.82V22.467H134.636V20.8551C134.008 21.6019 133.189 22.0891 132.179 22.3168L132.029 22.3441C131.601 22.4261 131.155 22.467 130.691 22.467ZM149.955 9.27124H147.771V16.2243C147.725 17.5357 147.411 18.542 146.829 19.2432C146.247 19.9444 145.428 20.2951 144.372 20.2951C143.28 20.2951 142.443 19.9126 141.86 19.1476C141.269 18.3917 140.973 17.3035 140.973 15.8828V9.27124H138.803V15.8828C138.803 17.3126 139.067 18.5511 139.595 19.5984C140.132 20.6457 140.882 21.4152 141.847 21.907C142.593 22.2803 143.435 22.467 144.372 22.467C145.309 22.467 146.151 22.2803 146.897 21.907C147.207 21.7339 147.498 21.5154 147.771 21.2513V23.4506C147.771 24.6982 147.443 25.6499 146.788 26.3056C146.124 26.9704 145.173 27.3028 143.935 27.3028C142.406 27.3028 141.328 26.8064 140.7 25.8138L138.735 26.7837C139.763 28.5868 141.496 29.4884 143.935 29.4884C145.764 29.4884 147.225 28.942 148.317 27.8492C149.409 26.7472 149.955 25.2811 149.955 23.4506V9.27124Z" fill="white"/>
<path d="M7.9419 4.27293C7.9419 2.1327 6.20826 0.397705 4.0697 0.397705C1.93115 0.397705 0.19751 2.1327 0.19751 4.27293V27.9625C0.19751 30.1027 1.93115 31.8377 4.0697 31.8377C6.20826 31.8377 7.9419 30.1027 7.9419 27.9625V4.27293Z" fill="url(#paint0_linear_13_116)"/>
<path d="M29.9102 4.27293C29.9102 2.1327 28.1765 0.397705 26.038 0.397705C23.8994 0.397705 22.1658 2.1327 22.1658 4.27293V27.9625C22.1658 30.1027 23.8994 31.8377 26.038 31.8377C28.1765 31.8377 29.9102 30.1027 29.9102 27.9625V4.27293Z" fill="url(#paint1_linear_13_116)"/>
<path d="M28.4656 1.2131L28.5125 1.25608C30.0892 2.702 30.1961 5.15332 28.7514 6.73126L6.91 30.5856C5.46522 32.1636 3.01581 32.2706 1.43911 30.8247L1.39224 30.7817C-0.184466 29.3358 -0.29141 26.8844 1.15338 25.3065L22.9947 1.45215C24.4395 -0.125794 26.8889 -0.23282 28.4656 1.2131Z" fill="url(#paint2_linear_13_116)"/>
<path d="M7.09824 1.69276C5.65345 0.114818 3.20405 0.00779096 1.62734 1.45371C0.0506348 2.89963 -0.0563089 5.35095 1.38848 6.9289L23.0094 30.5425C24.4542 32.1205 26.9036 32.2275 28.4803 30.7816C30.057 29.3357 30.164 26.8843 28.7192 25.3064L7.09824 1.69276Z" fill="url(#paint3_linear_13_116)"/>
</g>
<defs>
<linearGradient id="paint0_linear_13_116" x1="4.0697" y1="0.397705" x2="4.0697" y2="31.8377" gradientUnits="userSpaceOnUse">
<stop stop-color="#FF0000"/>
<stop offset="1" stop-color="#FFD308"/>
</linearGradient>
<linearGradient id="paint1_linear_13_116" x1="26.038" y1="0.397705" x2="26.038" y2="31.8377" gradientUnits="userSpaceOnUse">
<stop stop-color="#017DFE"/>
<stop offset="1" stop-color="#00F9D8"/>
</linearGradient>
<linearGradient id="paint2_linear_13_116" x1="28.4891" y1="1.23459" x2="1.3926" y2="30.782" gradientUnits="userSpaceOnUse">
<stop stop-color="#017DFE"/>
<stop offset="1" stop-color="#FFD410"/>
</linearGradient>
<linearGradient id="paint3_linear_13_116" x1="1.62734" y1="1.45371" x2="28.5032" y2="30.7606" gradientUnits="userSpaceOnUse">
<stop stop-color="#FF0000"/>
<stop offset="1" stop-color="#00FFC8"/>
</linearGradient>
<clipPath id="clip0_13_116">
<rect width="150" height="32" fill="white"/>
</clipPath>
</defs>
</svg>
