<svg width="220" height="60" viewBox="0 0 220 60" fill="none" xmlns="http://www.w3.org/2000/svg">
<g clip-path="url(#clip0_51_227)">
<path d="M30.2506 56.1326C26.9412 56.719 23.5735 56.8949 20.0898 57.3632L9.46408 25.9572V58.7111C6.15463 59.0625 3.13543 59.5313 0 60V0H8.82578L20.9026 34.0435V0H30.2506V56.1326ZM48.5405 21.9727C52.1406 21.9727 57.6565 21.7968 60.966 21.7968V31.1716C56.8434 31.1716 52.0244 31.1716 48.5405 31.3475V45.293C53.9986 44.9416 59.4565 44.4724 64.9722 44.2966V53.3195L39.2502 55.3707V0H64.9722V9.37501H48.5405V21.9727ZM99.5195 9.37523H89.8812V52.5002C86.7457 52.5002 83.6103 52.5002 80.5915 52.617V9.37523H70.9532V0H99.5199L99.5195 9.37523ZM114.616 21.3283H127.332V30.7031H114.616V51.9729H105.499V0H131.454V9.37501H114.616V21.3283ZM146.55 43.7695C151.834 43.8864 157.176 44.2972 162.343 44.5897V53.8476C154.041 53.3199 145.738 52.7933 137.26 52.617V0H146.55V43.7695ZM170.182 54.4922C173.143 54.6682 176.278 54.8441 179.298 55.1951V0H170.182V54.4922ZM220 0L208.213 28.5352L220 60C216.516 59.5313 213.032 58.8867 209.548 58.3007L202.871 40.9573L196.079 56.8949C192.71 56.3084 189.459 56.1326 186.092 55.6638L198.053 28.1834L187.253 0H197.239L203.336 15.7618L209.839 0L220 0Z" fill="#D81F26"/>
</g>
<defs>
<clipPath id="clip0_51_227">
<rect width="220" height="60" fill="white"/>
</clipPath>
</defs>
</svg>
