<svg width="188" height="80" viewBox="0 0 188 80" fill="none" xmlns="http://www.w3.org/2000/svg">
<path d="M69.2285 45.2222H71.5809L68.3098 35.4775H65.4146L62.1436 45.2222H64.482L65.0945 43.2732H68.6161L69.2285 45.2222ZM65.6652 41.38L66.7648 37.858H66.9457L68.0454 41.38H65.6652Z" fill="white"/>
<path d="M76.7911 38.1225C75.6219 38.1225 75.0373 38.6097 74.5779 39.2222H74.4109L74.1186 38.2617H72.3647V45.2222H74.5918V42.4519C74.5918 40.7674 75.4827 40.1271 76.5127 40.1271C76.805 40.1271 77.1948 40.2106 77.334 40.2524V38.1225H76.7911Z" fill="white"/>
<path d="M83.1605 44.9577L82.7569 43.3011C82.6177 43.3707 82.3671 43.5099 82.0748 43.5099C81.699 43.5099 81.4624 43.2593 81.4624 42.7303V39.96H83.2301V38.2617H81.4624V36.5076H79.5137V37.4264C79.5137 37.9833 79.1378 38.387 78.414 38.387H77.9547V39.96H79.3327V42.9391C79.3327 44.8045 80.3071 45.3614 81.6572 45.3614C82.3254 45.3614 82.8404 45.1526 83.1605 44.9577Z" fill="white"/>
<path d="M87.9908 38.1085C87.1835 38.1085 86.5849 38.4148 86.2648 38.7907V35.3104H84.1908V45.2222H85.8333L86.0421 44.5261H86.2509C86.5988 44.9577 87.1417 45.3475 88.0882 45.3475C89.8142 45.3475 91.2897 43.9971 91.2897 41.7558C91.2897 39.4728 89.7586 38.1085 87.9908 38.1085ZM87.7263 43.4542C86.8633 43.4542 86.2648 42.7303 86.2648 41.728C86.2648 40.7257 86.8633 40.0157 87.7263 40.0157C88.5893 40.0157 89.2018 40.7257 89.2018 41.728C89.2018 42.7303 88.5893 43.4542 87.7263 43.4542Z" fill="white"/>
<path d="M95.7582 45.3614C97.8044 45.3614 99.4886 43.9275 99.4886 41.728C99.4886 39.5424 97.8044 38.1225 95.7582 38.1225C93.726 38.1225 92 39.5424 92 41.7419C92 43.9275 93.726 45.3614 95.7582 45.3614ZM95.7582 43.482C94.7978 43.482 94.1158 42.7442 94.1158 41.7419C94.1158 40.7535 94.7978 40.0018 95.7582 40.0018C96.7187 40.0018 97.3729 40.7535 97.3729 41.7419C97.3729 42.7442 96.7326 43.482 95.7582 43.482Z" fill="white"/>
<path d="M106.518 42.9391V41.0459C106.518 39.0412 105.154 38.1225 103.484 38.1225C101.674 38.1225 100.547 39.1805 100.435 40.67H102.44C102.468 40.2941 102.76 39.7095 103.498 39.7095C104.054 39.7095 104.486 40.0575 104.486 40.7535V40.8649L103.205 40.9623C101.34 41.1155 100.115 41.8115 100.115 43.3011C100.115 44.6236 101.103 45.3614 102.635 45.3614C103.734 45.3614 104.555 44.9577 105.084 44.3312C105.335 45.0273 106.017 45.2222 106.685 45.2222H107.075V43.496C106.671 43.496 106.518 43.3568 106.518 42.9391ZM102.969 43.7048C102.523 43.7048 102.245 43.496 102.245 43.1619C102.245 42.7581 102.704 42.438 103.762 42.3544L104.486 42.2988C104.444 43.1479 103.706 43.7048 102.969 43.7048Z" fill="white"/>
<path d="M112.419 38.1225C111.25 38.1225 110.665 38.6097 110.206 39.2222H110.039L109.746 38.2617H107.992V45.2222H110.22V42.4519C110.22 40.7674 111.11 40.1271 112.14 40.1271C112.433 40.1271 112.822 40.2106 112.962 40.2524V38.1225H112.419Z" fill="white"/>
<path d="M116.695 38.1085C114.927 38.1085 113.396 39.4728 113.396 41.7558C113.396 43.9971 114.871 45.3475 116.583 45.3475C117.53 45.3475 118.073 44.9577 118.434 44.5261H118.629L118.838 45.2222H120.481V35.3104H118.407V38.7907C118.086 38.4148 117.502 38.1085 116.695 38.1085ZM116.945 43.4542C116.096 43.4542 115.484 42.7303 115.484 41.728C115.484 40.7257 116.082 40.0157 116.945 40.0157C117.822 40.0157 118.407 40.7257 118.407 41.728C118.407 42.7303 117.822 43.4542 116.945 43.4542Z" fill="white"/>
<path d="M132.5 42.5772C132.5 40.8092 131.122 40.0157 129.354 39.2501C128.31 38.8185 127.851 38.5679 127.851 38.0529C127.851 37.5239 128.283 37.2037 128.895 37.2037C129.73 37.2037 130.162 37.7048 130.217 38.3591H132.236C132.236 36.7164 131.011 35.3383 128.881 35.3383C127.072 35.3383 125.638 36.3684 125.638 38.2199C125.638 39.8347 127.183 40.5447 128.478 41.0876C129.563 41.5053 130.245 41.8811 130.245 42.5493C130.245 43.1758 129.702 43.482 129.076 43.482C128.032 43.482 127.517 42.8695 127.517 41.9368H125.36C125.36 43.9275 126.696 45.3614 129.006 45.3614C131.025 45.3614 132.5 44.4287 132.5 42.5772Z" fill="white"/>
<path d="M138.009 44.9577L137.605 43.3011C137.466 43.3707 137.216 43.5099 136.923 43.5099C136.547 43.5099 136.311 43.2593 136.311 42.7303V39.96H138.079V38.2617H136.311V36.5076H134.362V37.4264C134.362 37.9833 133.986 38.387 133.262 38.387H132.803V39.96H134.181V42.9391C134.181 44.8045 135.155 45.3614 136.506 45.3614C137.174 45.3614 137.689 45.1526 138.009 44.9577Z" fill="white"/>
<path d="M141.782 45.3614C143.077 45.3614 143.564 44.7906 143.884 44.3869H144.051L144.316 45.2222H146.069V38.2617H143.856V41.7558C143.856 42.9391 143.244 43.4124 142.548 43.4124C141.768 43.4124 141.212 42.8695 141.212 41.7419V38.2617H138.998V42.076C138.998 44.2338 140.154 45.3614 141.782 45.3614Z" fill="white"/>
<path d="M150.215 38.1085C148.448 38.1085 146.916 39.4728 146.916 41.7558C146.916 43.9971 148.392 45.3475 150.104 45.3475C151.05 45.3475 151.593 44.9577 151.955 44.5261H152.15L152.359 45.2222H154.001V35.3104H151.927V38.7907C151.607 38.4148 151.023 38.1085 150.215 38.1085ZM150.466 43.4542C149.617 43.4542 149.004 42.7303 149.004 41.728C149.004 40.7257 149.603 40.0157 150.466 40.0157C151.343 40.0157 151.927 40.7257 151.927 41.728C151.927 42.7303 151.343 43.4542 150.466 43.4542Z" fill="white"/>
<path d="M156.357 37.5656C157.067 37.5656 157.651 36.9531 157.651 36.271C157.651 35.5192 157.067 34.9624 156.357 34.9624C155.647 34.9624 155.034 35.5192 155.034 36.271C155.034 36.9531 155.647 37.5656 156.357 37.5656ZM157.387 38.2617H155.285V45.2222H157.387V38.2617Z" fill="white"/>
<path d="M162.27 45.3614C164.316 45.3614 166 43.9275 166 41.728C166 39.5424 164.316 38.1225 162.27 38.1225C160.237 38.1225 158.511 39.5424 158.511 41.7419C158.511 43.9275 160.237 45.3614 162.27 45.3614ZM162.27 43.482C161.309 43.482 160.627 42.7442 160.627 41.7419C160.627 40.7535 161.309 40.0018 162.27 40.0018C163.23 40.0018 163.884 40.7535 163.884 41.7419C163.884 42.7442 163.244 43.482 162.27 43.482Z" fill="white"/>
<path fill-rule="evenodd" clip-rule="evenodd" d="M29.8072 24.7555C25.7694 25.1051 22.6247 28.3345 22.3385 32.3773C22.1554 34.9639 22 37.8052 22 39.9997C22 42.1942 22.1554 45.0354 22.3385 47.6221C22.6247 51.6648 25.7694 54.8942 29.8072 55.2439C32.4042 55.4688 35.2987 55.659 37.6593 55.659C40.0199 55.659 42.9144 55.4688 45.5115 55.2439C49.5492 54.8942 52.694 51.6648 52.9802 47.6221C53.1633 45.0354 53.3186 42.1942 53.3186 39.9997C53.3186 37.8052 53.1633 34.9639 52.9802 32.3773C52.694 28.3345 49.5492 25.1051 45.5115 24.7555C42.9145 24.5306 40.0199 24.3403 37.6593 24.3403C35.2987 24.3403 32.4042 24.5306 29.8072 24.7555ZM40.3149 32.1702H37.0996C36.9947 32.1702 36.8899 32.2398 36.8899 32.379C36.8899 32.4486 36.9248 32.5182 36.9947 32.553C38.9169 33.3185 40.28 35.1976 40.28 37.39V42.6097C40.28 44.5237 39.2664 46.194 37.7287 47.0987C37.7112 47.0987 37.7025 47.1074 37.6937 47.1161C37.685 47.1248 37.6762 47.1335 37.6588 47.1335C37.5539 47.2031 37.484 47.3075 37.484 47.4467C37.484 47.6555 37.6588 47.8295 37.8685 47.8295H40.245C43.1458 47.8295 45.4874 45.498 45.4874 42.6097V37.39C45.5573 34.5017 43.2157 32.1702 40.3149 32.1702ZM35.1774 36.2764C35.422 35.1977 35.9812 34.2581 36.7501 33.5621C36.8549 33.4925 36.82 33.3185 36.7501 33.2489C36.2608 32.8662 35.6667 32.5878 35.0725 32.379C34.5832 32.2398 34.059 32.2398 33.5697 32.379C31.7873 32.9358 30.4592 34.3277 30.0048 36.1024C30.0048 36.1061 30.0029 36.1148 30.0001 36.1274L30.0001 36.1274C29.9762 36.2346 29.8891 36.6244 30.3893 36.6244H34.8279C35.1075 36.6244 35.1774 36.3112 35.1774 36.2764ZM35.1424 37.3899H38.2879C38.3927 37.3899 38.4976 37.4595 38.4277 37.5987C38.4277 37.6683 38.3927 37.7379 38.3228 37.7727C36.4006 38.5383 35.0376 40.4174 35.0376 42.6097C35.0376 44.1409 35.7016 45.5328 36.7501 46.4724C36.8549 46.542 36.8549 46.6812 36.7501 46.7508C36.0511 47.3075 35.2123 47.6555 34.3036 47.7947C31.7523 47.4119 29.7952 45.2196 29.8301 42.5749C29.8651 39.6866 32.2416 37.3899 35.1424 37.3899Z" fill="white"/>
</svg>
