<svg width="144" height="32" viewBox="0 0 144 32" fill="none" xmlns="http://www.w3.org/2000/svg">
<path d="M47.2285 21.2222H49.5809L46.3098 11.4775H43.4146L40.1436 21.2222H42.482L43.0945 19.2732H46.6161L47.2285 21.2222ZM43.6652 17.38L44.7648 13.858H44.9457L46.0454 17.38H43.6652Z" fill="white"/>
<path d="M54.7911 14.1225C53.6219 14.1225 53.0373 14.6097 52.5779 15.2222H52.4109L52.1186 14.2617H50.3647V21.2222H52.5918V18.4519C52.5918 16.7674 53.4827 16.1271 54.5127 16.1271C54.805 16.1271 55.1948 16.2106 55.334 16.2524V14.1225H54.7911Z" fill="white"/>
<path d="M61.1605 20.9577L60.7569 19.3011C60.6177 19.3707 60.3671 19.5099 60.0748 19.5099C59.699 19.5099 59.4624 19.2593 59.4624 18.7303V15.96H61.2301V14.2617H59.4624V12.5076H57.5137V13.4264C57.5137 13.9833 57.1378 14.387 56.414 14.387H55.9547V15.96H57.3327V18.9391C57.3327 20.8045 58.3071 21.3614 59.6572 21.3614C60.3254 21.3614 60.8404 21.1526 61.1605 20.9577Z" fill="white"/>
<path d="M65.9908 14.1085C65.1835 14.1085 64.5849 14.4148 64.2648 14.7907V11.3104H62.1908V21.2222H63.8333L64.0421 20.5261H64.2509C64.5988 20.9577 65.1417 21.3475 66.0882 21.3475C67.8142 21.3475 69.2897 19.9971 69.2897 17.7558C69.2897 15.4728 67.7586 14.1085 65.9908 14.1085ZM65.7263 19.4542C64.8633 19.4542 64.2648 18.7303 64.2648 17.728C64.2648 16.7257 64.8633 16.0157 65.7263 16.0157C66.5893 16.0157 67.2018 16.7257 67.2018 17.728C67.2018 18.7303 66.5893 19.4542 65.7263 19.4542Z" fill="white"/>
<path d="M73.7582 21.3614C75.8044 21.3614 77.4886 19.9275 77.4886 17.728C77.4886 15.5424 75.8044 14.1225 73.7582 14.1225C71.726 14.1225 70 15.5424 70 17.7419C70 19.9275 71.726 21.3614 73.7582 21.3614ZM73.7582 19.482C72.7978 19.482 72.1158 18.7442 72.1158 17.7419C72.1158 16.7535 72.7978 16.0018 73.7582 16.0018C74.7187 16.0018 75.3729 16.7535 75.3729 17.7419C75.3729 18.7442 74.7326 19.482 73.7582 19.482Z" fill="white"/>
<path d="M84.518 18.9391V17.0459C84.518 15.0412 83.1539 14.1225 81.4836 14.1225C79.6741 14.1225 78.5466 15.1805 78.4353 16.67H80.4397C80.4675 16.2941 80.7598 15.7095 81.4975 15.7095C82.0543 15.7095 82.4858 16.0575 82.4858 16.7535V16.8649L81.2052 16.9623C79.34 17.1155 78.1151 17.8115 78.1151 19.3011C78.1151 20.6236 79.1034 21.3614 80.6345 21.3614C81.7342 21.3614 82.5554 20.9577 83.0844 20.3312C83.3349 21.0273 84.0169 21.2222 84.6851 21.2222H85.0748V19.496C84.6712 19.496 84.518 19.3568 84.518 18.9391ZM80.9686 19.7048C80.5232 19.7048 80.2448 19.496 80.2448 19.1619C80.2448 18.7581 80.7041 18.438 81.762 18.3544L82.4858 18.2988C82.4441 19.1479 81.7063 19.7048 80.9686 19.7048Z" fill="white"/>
<path d="M90.4188 14.1225C89.2495 14.1225 88.6649 14.6097 88.2056 15.2222H88.0386L87.7463 14.2617H85.9924V21.2222H88.2195V18.4519C88.2195 16.7674 89.1104 16.1271 90.1404 16.1271C90.4327 16.1271 90.8224 16.2106 90.9616 16.2524V14.1225H90.4188Z" fill="white"/>
<path d="M94.6945 14.1085C92.9268 14.1085 91.3956 15.4728 91.3956 17.7558C91.3956 19.9971 92.8711 21.3475 94.5832 21.3475C95.5297 21.3475 96.0726 20.9577 96.4345 20.5261H96.6293L96.8381 21.2222H98.4806V11.3104H96.4066V14.7907C96.0865 14.4148 95.5019 14.1085 94.6945 14.1085ZM94.9451 19.4542C94.096 19.4542 93.4836 18.7303 93.4836 17.728C93.4836 16.7257 94.0821 16.0157 94.9451 16.0157C95.822 16.0157 96.4066 16.7257 96.4066 17.728C96.4066 18.7303 95.822 19.4542 94.9451 19.4542Z" fill="white"/>
<path d="M110.5 18.5772C110.5 16.8092 109.122 16.0157 107.354 15.2501C106.31 14.8185 105.851 14.5679 105.851 14.0529C105.851 13.5239 106.283 13.2037 106.895 13.2037C107.73 13.2037 108.162 13.7048 108.217 14.3591H110.236C110.236 12.7164 109.011 11.3383 106.881 11.3383C105.072 11.3383 103.638 12.3684 103.638 14.2199C103.638 15.8347 105.183 16.5447 106.478 17.0876C107.563 17.5053 108.245 17.8811 108.245 18.5493C108.245 19.1758 107.702 19.482 107.076 19.482C106.032 19.482 105.517 18.8695 105.517 17.9368H103.36C103.36 19.9275 104.696 21.3614 107.006 21.3614C109.025 21.3614 110.5 20.4287 110.5 18.5772Z" fill="white"/>
<path d="M116.009 20.9577L115.605 19.3011C115.466 19.3707 115.216 19.5099 114.923 19.5099C114.547 19.5099 114.311 19.2593 114.311 18.7303V15.96H116.079V14.2617H114.311V12.5076H112.362V13.4264C112.362 13.9833 111.986 14.387 111.262 14.387H110.803V15.96H112.181V18.9391C112.181 20.8045 113.155 21.3614 114.506 21.3614C115.174 21.3614 115.689 21.1526 116.009 20.9577Z" fill="white"/>
<path d="M119.782 21.3614C121.077 21.3614 121.564 20.7906 121.884 20.3869H122.051L122.316 21.2222H124.069V14.2617H121.856V17.7558C121.856 18.9391 121.244 19.4124 120.548 19.4124C119.768 19.4124 119.212 18.8695 119.212 17.7419V14.2617H116.998V18.076C116.998 20.2338 118.154 21.3614 119.782 21.3614Z" fill="white"/>
<path d="M128.215 14.1085C126.448 14.1085 124.916 15.4728 124.916 17.7558C124.916 19.9971 126.392 21.3475 128.104 21.3475C129.05 21.3475 129.593 20.9577 129.955 20.5261H130.15L130.359 21.2222H132.001V11.3104H129.927V14.7907C129.607 14.4148 129.023 14.1085 128.215 14.1085ZM128.466 19.4542C127.617 19.4542 127.004 18.7303 127.004 17.728C127.004 16.7257 127.603 16.0157 128.466 16.0157C129.343 16.0157 129.927 16.7257 129.927 17.728C129.927 18.7303 129.343 19.4542 128.466 19.4542Z" fill="white"/>
<path d="M134.357 13.5656C135.067 13.5656 135.651 12.9531 135.651 12.271C135.651 11.5192 135.067 10.9624 134.357 10.9624C133.647 10.9624 133.034 11.5192 133.034 12.271C133.034 12.9531 133.647 13.5656 134.357 13.5656ZM135.387 14.2617H133.285V21.2222H135.387V14.2617Z" fill="white"/>
<path d="M140.27 21.3614C142.316 21.3614 144 19.9275 144 17.728C144 15.5424 142.316 14.1225 140.27 14.1225C138.237 14.1225 136.511 15.5424 136.511 17.7419C136.511 19.9275 138.237 21.3614 140.27 21.3614ZM140.27 19.482C139.309 19.482 138.627 18.7442 138.627 17.7419C138.627 16.7535 139.309 16.0018 140.27 16.0018C141.23 16.0018 141.884 16.7535 141.884 17.7419C141.884 18.7442 141.244 19.482 140.27 19.482Z" fill="white"/>
<path fill-rule="evenodd" clip-rule="evenodd" d="M7.80715 0.755465C3.76942 1.10511 0.62466 4.33454 0.338471 8.37727C0.155359 10.9639 0 13.8052 0 15.9997C0 18.1942 0.155359 21.0354 0.338471 23.6221C0.62466 27.6648 3.76942 30.8942 7.80716 31.2439C10.4042 31.4688 13.2987 31.659 15.6593 31.659C18.0199 31.659 20.9144 31.4688 23.5115 31.2439C27.5492 30.8942 30.694 27.6648 30.9802 23.6221C31.1633 21.0354 31.3186 18.1942 31.3186 15.9997C31.3186 13.8052 31.1633 10.9639 30.9802 8.37727C30.694 4.33454 27.5492 1.10511 23.5115 0.755465C20.9145 0.530573 18.0199 0.340332 15.6593 0.340332C13.2987 0.340332 10.4042 0.530573 7.80715 0.755465ZM18.3149 8.17017H15.0996C14.9947 8.17017 14.8899 8.23977 14.8899 8.37896C14.8899 8.44856 14.9248 8.51816 14.9947 8.55295C16.9169 9.31852 18.28 11.1976 18.28 13.39V18.6097C18.28 20.5237 17.2664 22.194 15.7287 23.0987C15.7112 23.0987 15.7025 23.1074 15.6937 23.1161C15.685 23.1248 15.6762 23.1335 15.6588 23.1335C15.5539 23.2031 15.484 23.3075 15.484 23.4467C15.484 23.6555 15.6588 23.8295 15.8685 23.8295H18.245C21.1458 23.8295 23.4874 21.498 23.4874 18.6097V13.39C23.5573 10.5017 21.2157 8.17017 18.3149 8.17017ZM13.1774 12.2764C13.422 11.1977 13.9812 10.2581 14.7501 9.56212C14.8549 9.49253 14.82 9.31853 14.7501 9.24894C14.2608 8.86615 13.6667 8.58776 13.0725 8.37897C12.5832 8.23978 12.059 8.23978 11.5697 8.37897C9.78727 8.93575 8.45919 10.3277 8.00485 12.1024C8.00485 12.1061 8.00291 12.1148 8.00009 12.1274L8.00008 12.1274C7.97615 12.2346 7.88907 12.6244 8.38929 12.6244H12.8279C13.1075 12.6244 13.1774 12.3112 13.1774 12.2764ZM13.1424 13.3899H16.2879C16.3927 13.3899 16.4976 13.4595 16.4277 13.5987C16.4277 13.6683 16.3927 13.7379 16.3228 13.7727C14.4006 14.5383 13.0376 16.4174 13.0376 18.6097C13.0376 20.1409 13.7016 21.5328 14.7501 22.4724C14.8549 22.542 14.8549 22.6812 14.7501 22.7508C14.0511 23.3075 13.2123 23.6555 12.3036 23.7947C9.75233 23.4119 7.79516 21.2196 7.83011 18.5749C7.86506 15.6866 10.2416 13.3899 13.1424 13.3899Z" fill="white"/>
</svg>
