<svg width="28" height="16" viewBox="0 0 28 16" fill="none" xmlns="http://www.w3.org/2000/svg">
<path d="M20.1367 11.9539C19.5234 11.954 19.0261 11.4247 19.026 10.7715C19.0259 10.1184 19.523 9.58889 20.1363 9.58873C20.7496 9.58861 21.2469 10.118 21.247 10.7711C21.2463 11.4238 20.7497 11.9529 20.1367 11.9539ZM7.86327 11.9539C7.24994 11.954 6.7527 11.4247 6.75254 10.7715C6.75244 10.1184 7.24952 9.58889 7.86285 9.58873C8.47619 9.58861 8.97342 10.118 8.97358 10.7711C8.97296 11.4239 8.47629 11.953 7.86327 11.9539ZM20.5349 4.83113L22.754 0.738201C22.8817 0.503094 22.8062 0.20232 22.5854 0.0663807C22.3646 -0.0695585 22.0821 0.0108625 21.9545 0.245969L19.7073 4.39059C17.9889 3.55543 16.059 3.09038 13.9998 3.09038C11.9405 3.09038 10.0108 3.5561 8.29244 4.39059L6.04546 0.245969C5.91801 0.010807 5.63561 -0.069836 5.41478 0.0659368C5.19395 0.201654 5.11822 0.502373 5.24572 0.737535L7.46504 4.83113C3.65436 7.03827 1.04791 11.1463 0.666656 16H27.3333C26.9516 11.1463 24.3454 7.03827 20.5349 4.83113Z" fill="white"/>
</svg>
