<svg width="32" height="32" viewBox="0 0 32 32" fill="none" xmlns="http://www.w3.org/2000/svg">
<path d="M29.3071 15.2139C28.8538 7.48067 21.8271 1.52068 13.7338 2.85401C8.16041 3.77401 3.69374 8.29399 2.82708 13.8673C2.32041 17.0939 2.9871 20.1473 4.44044 22.6673L3.25376 27.0806C2.98709 28.0806 3.90706 28.9873 4.89373 28.7073L9.24041 27.5073C11.2137 28.6673 13.5204 29.334 15.9871 29.334C23.5071 29.334 29.7471 22.7073 29.3071 15.2139ZM22.5071 20.9606C22.3871 21.2006 22.2404 21.4273 22.0538 21.6406C21.7204 22.0006 21.3604 22.2673 20.9604 22.4273C20.5604 22.6006 20.1204 22.6806 19.6538 22.6806C18.9738 22.6806 18.2404 22.5207 17.4804 22.1874C16.7071 21.8541 15.9471 21.4139 15.1871 20.8673C14.4138 20.3073 13.6938 19.6806 13.0004 19.0006C12.3071 18.3073 11.6937 17.5739 11.1337 16.8139C10.5871 16.0539 10.1471 15.2939 9.82708 14.5339C9.50708 13.7739 9.3471 13.0407 9.3471 12.3473C9.3471 11.894 9.42709 11.454 9.58709 11.054C9.74709 10.6407 10.0005 10.2673 10.3605 9.93401C10.7871 9.50735 11.2538 9.30735 11.7471 9.30735C11.9337 9.30735 12.1204 9.34733 12.2937 9.42733C12.4671 9.50733 12.6271 9.62734 12.7471 9.80067L14.2938 11.9873C14.4138 12.1607 14.5071 12.3073 14.5604 12.454C14.6271 12.6007 14.6538 12.734 14.6538 12.8673C14.6538 13.0273 14.6004 13.1873 14.5071 13.3473C14.4138 13.5073 14.2938 13.6673 14.1338 13.8273L13.6271 14.3606C13.5471 14.4406 13.5204 14.5206 13.5204 14.6273C13.5204 14.6806 13.5338 14.7339 13.5471 14.7873C13.5738 14.8406 13.5871 14.8806 13.6004 14.9206C13.7204 15.1473 13.9338 15.4273 14.2271 15.7739C14.5338 16.1206 14.8538 16.4806 15.2004 16.8273C15.5604 17.1873 15.9071 17.5073 16.2671 17.8139C16.6138 18.1073 16.9071 18.3073 17.1338 18.4273C17.1738 18.4406 17.2138 18.4673 17.2538 18.4806C17.3071 18.5073 17.3604 18.5073 17.4271 18.5073C17.5471 18.5073 17.6271 18.4673 17.7071 18.3873L18.2138 17.8806C18.3871 17.7073 18.5471 17.5873 18.6938 17.5073C18.8538 17.4139 19.0004 17.3606 19.1738 17.3606C19.3071 17.3606 19.4404 17.3873 19.5871 17.4539C19.7338 17.5206 19.8938 17.6006 20.0538 17.7206L22.2671 19.2939C22.4404 19.4139 22.5604 19.5606 22.6404 19.7206C22.7071 19.8939 22.7471 20.0539 22.7471 20.2406C22.6671 20.4673 22.6138 20.7206 22.5071 20.9606Z" fill="#141414"/>
</svg>
