<svg width="106" height="32" fill="none" xmlns="http://www.w3.org/2000/svg"><path d="M5.017 31.585c0-3.991 3.22-7.227 7.192-7.227h17.77c0 3.992-3.22 7.227-7.192 7.227H5.017ZM.786 19.54c0-3.992 3.22-7.228 7.192-7.228h18.089c0 3.992-3.22 7.228-7.192 7.228H.785ZM43.903 31.585c3.836 1.033 7.78-1.255 8.808-5.11l3.708-13.906c-3.837-1.033-7.78 1.255-8.809 5.11l-3.707 13.906ZM11.378 7.494c0-3.992 3.22-7.228 7.192-7.228h17.589c0 3.992-3.22 7.228-7.192 7.228H11.378ZM39.863 7.494c0-3.992 3.22-7.228 7.192-7.228H69.83c0 3.992-3.22 7.228-7.192 7.228H39.863ZM73.454 7.494c0-3.992 3.22-7.228 7.192-7.228h9.067c0 3.992-3.22 7.228-7.192 7.228h-9.067ZM85.176 31.585c0-3.991 3.22-7.227 7.192-7.227h9.067c0 3.992-3.22 7.227-7.192 7.227h-9.067ZM102.668.218C99.391.098 96.754 0 94.699 2.284l-7.41 8.7-.005-.005-.436.525-.731.858.008.01-16.094 19.323c.767 0 1.505.02 2.213.04 3.39.095 6.101.171 8.173-2.131L90.73 17.49l.004.004.386-.463.814-.956-.008-.01L105.098.275c-.846 0-1.656-.029-2.43-.057Z" fill="#fff"/></svg>