<svg width="52" height="52" viewBox="0 0 52 52" fill="none" xmlns="http://www.w3.org/2000/svg">
<path d="M7.24722 46.8019L3.07452 0H48.9255L44.7484 46.7945L25.972 52L7.24722 46.8019Z" fill="#CCCCCC"/>
<path d="M12.6405 21.1849L13.1549 26.9249H26V21.1849H12.6405ZM12.1285 15.307H26V9.56689H11.6067L12.1285 15.307ZM26 36.0925L25.9748 36.0992L19.5821 34.373L19.1735 29.795H13.4113L14.2155 38.8078L25.9736 42.072L26 42.0646V36.0925Z" fill="white"/>
<path d="M25.9802 21.1849V26.9249H33.0485L32.3822 34.3694L25.9802 36.0973V42.0691L37.7477 38.8078L37.834 37.8379L39.1827 22.7262L39.3229 21.1849L40.3591 9.56689H25.9802V15.307H34.0686L33.5461 21.1849H25.9802Z" fill="white"/>
</svg>
