<svg width="109" height="40" viewBox="0 0 109 40" fill="none" xmlns="http://www.w3.org/2000/svg">
<g clip-path="url(#clip0_3_10)">
<path d="M9.40419 12.0991C9.1958 12.0991 9.1437 11.9948 9.2479 11.8383L10.3419 10.4303C10.4461 10.2738 10.7066 10.1695 10.915 10.1695H29.5134C29.7218 10.1695 29.7739 10.3259 29.6697 10.4824L28.7841 11.8383C28.6799 11.9948 28.4194 12.1512 28.2631 12.1512L9.40419 12.0991Z" fill="#CCCCCC"/>
<path d="M1.53761 16.897C1.32922 16.897 1.27713 16.7927 1.38132 16.6362L2.47535 15.2282C2.57954 15.0717 2.84002 14.9674 3.04841 14.9674H26.8044C27.0128 14.9674 27.117 15.1239 27.0649 15.2803L26.6481 16.5319C26.596 16.7405 26.3876 16.8449 26.1792 16.8449L1.53761 16.897Z" fill="#CCCCCC"/>
<path d="M14.1449 21.6949C13.9365 21.6949 13.8844 21.5385 13.9886 21.382L14.718 20.0782C14.8222 19.9218 15.0305 19.7653 15.2389 19.7653H25.6582C25.8666 19.7653 25.9708 19.9218 25.9708 20.1304L25.8666 21.382C25.8666 21.5906 25.6582 21.7471 25.5019 21.7471L14.1449 21.6949Z" fill="#CCCCCC"/>
<path d="M68.2211 11.1604C64.939 11.9948 62.6989 12.6206 59.4689 13.455C58.6875 13.6636 58.6354 13.7158 57.9581 12.9335C57.1767 12.047 56.6036 11.4733 55.5096 10.9518C52.2275 9.33509 49.0496 9.80445 46.0801 11.734C42.5376 14.0287 40.7142 17.4185 40.7663 21.6428C40.8184 25.8149 43.6837 29.2569 47.7993 29.8305C51.3419 30.2999 54.3114 29.0483 56.6557 26.3885C57.1246 25.8149 57.5413 25.1891 58.0623 24.459C56.1868 24.459 53.8425 24.459 48.0077 24.459C46.9137 24.459 46.6532 23.781 47.0179 22.8944C47.6951 21.2777 48.9454 18.5659 49.6748 17.2099C49.8311 16.897 50.1957 16.3755 50.9772 16.3755C53.6341 16.3755 63.4282 16.3755 69.9403 16.3755C69.8361 17.7836 69.8361 19.1917 69.6277 20.5998C69.0547 24.3546 67.6481 27.7966 65.3558 30.8214C61.6049 35.7758 56.7078 38.8527 50.5083 39.6871C45.4029 40.3651 40.6621 39.3742 36.4944 36.2451C32.6392 33.3247 30.4512 29.4655 29.8781 24.6676C29.2009 18.9831 30.868 13.8722 34.3063 9.38724C38.0052 4.53718 42.9022 1.46025 48.8933 0.365077C53.7904 -0.521494 58.4791 0.0521696 62.6989 2.92049C65.46 4.74578 67.4397 7.24904 68.7421 10.2738C69.0547 10.7432 68.8463 11.0039 68.2211 11.1604Z" fill="#CCCCCC"/>
<path d="M85.4651 40C80.7243 39.8957 76.4003 38.5398 72.7535 35.4107C69.6798 32.751 67.7523 29.3612 67.1271 25.3455C66.1894 19.4524 67.8044 14.2373 71.3469 9.59585C75.15 4.58933 79.7344 1.98176 85.9339 0.886588C91.2478 -0.0521345 96.249 0.469378 100.781 3.5463C104.897 6.36247 107.45 10.1695 108.127 15.176C109.013 22.2164 106.981 27.9531 102.136 32.8553C98.6976 36.3494 94.4777 38.5398 89.6328 39.5307C88.2262 39.7914 86.8196 39.8436 85.4651 40ZM97.864 18.9309C97.8119 18.253 97.8119 17.7314 97.7077 17.2099C96.77 12.047 92.0292 9.12648 87.0801 10.2738C82.2351 11.369 79.1093 14.4459 77.9632 19.3481C77.0254 23.4159 79.0051 27.5359 82.756 29.2047C85.6214 30.4563 88.4867 30.2999 91.2478 28.8918C95.3634 26.7536 97.6035 23.4159 97.864 18.9309Z" fill="#CCCCCC"/>
</g>
<defs>
<clipPath id="clip0_3_10">
<rect width="109" height="40" fill="white"/>
</clipPath>
</defs>
</svg>
