<svg width="52" height="52" viewBox="0 0 52 52" fill="none" xmlns="http://www.w3.org/2000/svg">
<g clip-path="url(#clip0_3_31)">
<path d="M0.571289 0.571838H51.4274V51.4282H0.571289V0.571838Z" fill="#CCCCCC"/>
<path d="M47.2669 39.2995C46.8945 36.9792 45.3815 35.0305 40.9002 33.2133C39.3434 32.4979 37.6079 31.9857 37.0907 30.8059C36.9072 30.1193 36.8827 29.7325 36.9991 29.317C37.3325 27.9682 38.9426 27.5477 40.2185 27.9344C41.0404 28.21 41.8184 28.8433 42.2875 29.8537C44.4821 28.4325 44.4778 28.4419 46.01 27.4653C45.4491 26.5954 45.1497 26.1942 44.7824 25.8219C43.4625 24.3477 41.6639 23.5885 38.7877 23.6466L37.2894 23.8403C35.8538 24.2032 34.4855 24.9568 33.6832 25.9671C31.2758 28.6986 31.9622 33.4794 34.8918 35.4469C37.7778 37.6129 42.0175 38.1058 42.559 40.1315C43.0859 42.6112 40.7366 43.414 38.4014 43.1286C36.6806 42.7707 35.7234 41.8962 34.6888 40.3057C32.7843 41.4078 32.7843 41.4078 30.826 42.5339C31.2904 43.5492 31.7783 44.0087 32.5568 44.8882C36.2405 48.6248 45.4593 48.4413 47.1127 42.7854C47.1796 42.5913 47.6249 41.296 47.2669 39.2995ZM28.22 23.946H23.4633L23.4438 36.244C23.4438 38.8594 23.579 41.257 23.1537 41.992C22.4577 43.4374 20.6544 43.2582 19.8325 42.978C18.9961 42.5668 18.5707 41.9822 18.0779 41.1559C17.9427 40.9186 17.8411 40.7351 17.807 40.7208L13.9395 43.0892C14.5826 44.4091 15.5299 45.5548 16.7434 46.2991C18.5561 47.387 20.9924 47.7204 23.5404 47.1354C25.1988 46.6525 26.6294 45.6519 27.3787 44.129C28.4618 42.1322 28.2293 39.7155 28.2195 37.0422C28.244 32.6812 28.22 28.321 28.22 23.946Z" fill="white"/>
</g>
<defs>
<clipPath id="clip0_3_31">
<rect width="52" height="52" fill="white"/>
</clipPath>
</defs>
</svg>
