<svg width="52" height="52" viewBox="0 0 52 52" fill="none" xmlns="http://www.w3.org/2000/svg">
<path d="M25.9999 30.9524C28.735 30.9524 30.9524 28.5965 30.9524 25.6906C30.9524 22.7844 28.735 20.4286 25.9999 20.4286C23.2647 20.4286 21.0476 22.7844 21.0476 25.6906C21.0476 28.5965 23.2647 30.9524 25.9999 30.9524Z" fill="#CCCCCC"/>
<path d="M43.9841 17.4668C43.0704 17.1168 42.115 16.7669 41.1183 16.4607C41.3675 15.4109 41.575 14.361 41.7412 13.3549C42.6134 7.58084 41.6582 3.51274 39 1.93799C38.2108 1.45681 37.3387 1.2381 36.3418 1.2381C33.4345 1.2381 29.738 3.51274 26 7.31839C22.262 3.51274 18.5655 1.2381 15.6582 1.2381C14.6613 1.2381 13.7891 1.45681 13 1.93799C10.3419 3.55649 9.38658 7.62459 10.2588 13.3549C10.4249 14.361 10.6326 15.4109 10.8818 16.4607C9.88499 16.7669 8.92971 17.0731 8.01597 17.4668C2.82429 19.5664 0 22.4534 0 25.6905C0 28.9276 2.86582 31.8146 8.01597 33.9142C8.92971 34.2641 9.88499 34.614 10.8818 34.9202C10.6326 35.9701 10.4249 37.0199 10.2588 38.0261C9.38658 43.8001 10.3419 47.8682 13 49.4429C13.7891 49.9242 14.6613 50.1429 15.6582 50.1429C18.607 50.1429 22.3034 47.8682 26 44.0626C29.738 47.8682 33.4345 50.1429 36.3418 50.1429C37.3387 50.1429 38.2108 49.9242 39 49.4429C41.6582 47.8246 42.6134 43.7563 41.7412 38.0261C41.575 37.0199 41.3675 35.9701 41.1183 34.9202C42.115 34.614 43.0704 34.3079 43.9841 33.9142C49.1758 31.8146 52 28.9276 52 25.6905C52 22.4534 49.1758 19.5664 43.9841 17.4668ZM37.8371 4.12515C39.54 5.17497 40.1213 8.41196 39.4154 13.005C39.2908 13.9236 39.083 14.8859 38.8338 15.892C36.6741 15.3671 34.3897 15.0172 31.9808 14.7985C30.5687 12.6988 29.115 10.8178 27.6613 9.11185C30.7349 5.91861 33.8499 3.73145 36.3834 3.73145C36.9233 3.73145 37.4217 3.86267 37.8371 4.12515ZM33.1854 30.0648C32.4376 31.4645 31.5655 32.8644 30.6517 34.2641C29.115 34.3953 27.5783 34.4391 26 34.4391C24.3801 34.4391 22.8434 34.3953 21.3483 34.2641C20.4345 32.8644 19.6038 31.4645 18.8562 30.0648C18.0671 28.6213 17.3195 27.134 16.655 25.6905C17.3195 24.247 18.0671 22.7597 18.8562 21.3162C19.6038 19.9164 20.476 18.5166 21.3897 17.1168C22.9266 16.9856 24.4633 16.9419 26.0416 16.9419C27.6613 16.9419 29.198 16.9856 30.6933 17.1168C31.6071 18.5166 32.4376 19.9164 33.1854 21.3162C33.9745 22.7597 34.7221 24.247 35.3866 25.6905C34.6805 27.134 33.9745 28.5775 33.1854 30.0648ZM36.6325 28.6213C37.2555 30.1522 37.7541 31.6395 38.2108 33.1269C36.7987 33.4767 35.3034 33.7392 33.7253 33.9578C34.2237 33.1269 34.7637 32.2519 35.2204 31.3333C35.7188 30.4147 36.1758 29.4961 36.6325 28.6213ZM26 40.4756C25.0033 39.3384 24.0479 38.1135 23.1342 36.845C24.0895 36.8887 25.0447 36.9325 26 36.9325C26.9553 36.9325 27.9105 36.8887 28.8658 36.845C27.9521 38.1135 26.9967 39.3384 26 40.4756ZM18.2748 33.9142C16.6965 33.6954 15.2013 33.4329 13.7891 33.083C14.246 31.6395 14.7444 30.1086 15.3674 28.5775C15.8243 29.4525 16.2812 30.3711 16.7795 31.2459C17.278 32.2083 17.7764 33.0392 18.2748 33.9142ZM15.3674 22.7597C14.7444 21.2287 14.246 19.7414 13.7891 18.2542C15.2013 17.9042 16.6965 17.6418 18.2748 17.423C17.7764 18.2542 17.2364 19.129 16.7795 20.0476C16.2812 20.9662 15.8243 21.8849 15.3674 22.7597ZM26 10.9053C26.9967 12.0426 27.9521 13.2674 28.8658 14.536C27.9105 14.4922 26.9553 14.4485 26 14.4485C25.0447 14.4485 24.0895 14.4922 23.1342 14.536C24.0479 13.2674 25.0033 12.0426 26 10.9053ZM35.2204 20.0914L33.7253 17.4668C35.3034 17.6855 36.7987 17.948 38.2108 18.2979C37.7541 19.7414 37.2555 21.2724 36.6325 22.8035C36.1758 21.8849 35.7188 20.9662 35.2204 20.0914ZM12.5847 13.005C11.8786 8.41196 12.4601 5.17497 14.1629 4.12515C14.5783 3.86267 15.0767 3.73145 15.6166 3.73145C18.1086 3.73145 21.2237 5.87486 24.3387 9.11185C22.885 10.7741 21.4313 12.6988 20.0192 14.7985C17.6102 15.0172 15.3259 15.4109 13.1661 15.892C12.9169 14.8859 12.7508 13.9236 12.5847 13.005ZM2.32588 25.6905C2.32588 23.6346 4.69329 21.4474 8.84666 19.8289C9.67732 19.479 10.591 19.1728 11.5048 18.9103C12.1693 21.0975 13 23.4158 13.9968 25.7343C13 28.0526 12.1278 30.3273 11.5048 32.5143C5.77316 30.7648 2.32588 28.14 2.32588 25.6905ZM14.1629 47.2559C12.4601 46.206 11.8786 42.9689 12.5847 38.376C12.7093 37.4574 12.9169 36.495 13.1661 35.489C15.3259 36.0139 17.6102 36.3637 20.0192 36.5826C21.4313 38.6822 22.885 40.563 24.3387 42.2692C21.2651 45.4623 18.1502 47.6495 15.6166 47.6495C15.0767 47.6495 14.5783 47.5183 14.1629 47.2559ZM39.4154 38.376C40.1213 42.9689 39.54 46.206 37.8371 47.2559C37.4217 47.5183 36.9233 47.6495 36.3834 47.6495C33.8913 47.6495 30.7763 45.5061 27.6613 42.2692C29.115 40.6068 30.5687 38.6822 31.9808 36.5826C34.3897 36.3637 36.6741 35.9701 38.8338 35.489C39.083 36.495 39.2492 37.4574 39.4154 38.376ZM43.1533 31.5521C42.3226 31.902 41.4088 32.2083 40.4953 32.4707C39.8308 30.2835 39 27.9652 38.0033 25.6467C39 23.3284 39.8721 21.0537 40.4953 18.8666C46.2268 20.6163 49.6741 23.241 49.6741 25.6905C49.6741 27.7463 47.2651 29.9336 43.1533 31.5521Z" fill="#CCCCCC"/>
</svg>
